<?xml version="1.0" encoding="utf-8"?>
<!-- Generator: Adobe Illustrator 27.8.0, SVG Export Plug-In . SVG Version: 6.00 Build 0)  -->
<svg version="1.1" id="Layer_2_00000071542018535857011090000000525548236258400664_"
	 xmlns="http://www.w3.org/2000/svg" xmlns:xlink="http://www.w3.org/1999/xlink" x="0px" y="0px" viewBox="0 0 1080 1080"
	 style="enable-background:new 0 0 1080 1080;" xml:space="preserve">
<style type="text/css">
	.st0{fill:#FBFBFB;}
	.st1{fill:#D4D4D4;}
	.st2{fill:#D9D9D9;}
	.st3{fill:url(#SVGID_1_);}
	.st4{fill:url(#SVGID_00000075150531066962500280000014351170498888371381_);}
	.st5{fill:url(#SVGID_00000059997055177972220250000000921252967813375119_);}
	.st6{fill:#999999;}
	.st7{fill:url(#SVGID_00000119114901153741474220000001569463932962343837_);}
	.st8{fill:url(#SVGID_00000065773047678037578810000012574524408566931092_);}
	.st9{fill:url(#SVGID_00000062163647660354876230000004004331426527659137_);}
	.st10{fill:#676767;}
	.st11{fill:#767676;}
	.st12{fill:url(#SVGID_00000086656868183693338210000002288090859201677201_);}
</style>
<g>
	<path d="M598.5,99.1L186.7,266.8l-13.9,98l-124.9,20l90.8,127.8l13.5-1.9l-20.2,151L48.5,795.1l95,92.8l116.2-75.8l216.6,168.8
		l412.6-166.6l22.4-160.8c159.4-74,196.1-373.4-36.2-339.5L598.5,99.1z"/>
	<path class="st0" d="M1011.3,488.5c-13.6,47.8-39.5,93.1-74.7,121.7c-15.9,13-34.8,21.7-54.9,25.8c-2.8,0.6-5.5,1-8.3,1.4
		l-214.5,29.7l49.2-104.6l33.2,40.9L909.2,577c87.7-77.7,111.2-177.9,31.3-198.5c-11.9-3.1-24.4-3.7-36.6-2.2l-243.3,29L491.9,796.9
		l-84.3-167.6L162.1,770.5l213.8-371.6l-189.5,29.5l-96.9-26.5l383.9-60.5L278.7,655l148.9-97.7l59.1,124.2l130.7-313.3L885,336.4
		c68.1-10.1,127.4,18.4,132.5,97.2C1018.6,452.1,1016.3,470.7,1011.3,488.5z"/>
	<path class="st1" d="M881.7,636c-2.8,0.6-5.5,1-8.3,1.4l-214.5,29.7l49.2-104.6l33.2,40.9L909.2,577
		C909.3,577.1,913.3,618.5,881.7,636z"/>
	<path class="st1" d="M909.3,577C909.2,577.1,909.2,577.1,909.3,577l-167.9,26.5l-33.2-40.9l166.1-23.9
		C874.3,538.7,897.3,554.1,909.3,577z"/>
	<polygon class="st0" points="491.9,796.9 491.9,922.5 492,922.8 685.8,458.6 660.7,405.3 	"/>
	<polygon class="st2" points="660.7,405.3 491.9,796.9 486.6,681.5 617.3,368.3 	"/>
	
		<linearGradient id="SVGID_1_" gradientUnits="userSpaceOnUse" x1="162.0458" y1="603.9646" x2="378.4597" y2="204.8974" gradientTransform="matrix(1 0 0 -1 0 1080)">
		<stop  offset="0" style="stop-color:#D3D3D3"/>
		<stop  offset="0.2603" style="stop-color:#D5D5D5"/>
		<stop  offset="0.354" style="stop-color:#DCDCDC"/>
		<stop  offset="0.4206" style="stop-color:#E7E7E7"/>
		<stop  offset="0.4481" style="stop-color:#EFEFEF"/>
		<stop  offset="0.4927" style="stop-color:#E8E8E8"/>
		<stop  offset="0.623" style="stop-color:#D9D9D9"/>
		<stop  offset="0.7752" style="stop-color:#D0D0D0"/>
		<stop  offset="1" style="stop-color:#CDCDCD"/>
	</linearGradient>
	<polygon class="st3" points="407.6,629.2 162.1,770.5 375.9,398.9 186.3,428.5 89.5,401.9 149.9,487.7 278.4,469.2 77.6,791.8 
		146.1,858.2 386.6,701.2 491.9,922.5 491.9,796.9 	"/>
	<path class="st2" d="M909.3,577c-12-22.9-34.9-38.3-35-38.3l-166.1,23.9l33.2,40.9l-0.1,0l-33.2-40.9l166.1-23.9
		c27.1-16.4,40.3-54.8,45-106.8l-233.4,26.8l-25.1-53.3l243.3-29c12.2-1.5,24.7-0.9,36.6,2.2C1020.4,399.1,997,499.3,909.3,577z"/>
	<path class="st0" d="M909.3,577.1l-167.9,26.4l0,0l-33.2-40.9l166.1-23.9C874.3,538.7,897.3,554.1,909.3,577.1
		C909.3,577.1,909.3,577.1,909.3,577.1z"/>
	<g>
		
			<linearGradient id="SVGID_00000122699663994423762680000017322463253468892852_" gradientUnits="userSpaceOnUse" x1="574.1989" y1="1001.9954" x2="484.1707" y2="113.2558" gradientTransform="matrix(1 0 0 -1 0 1080)">
			<stop  offset="0" style="stop-color:#F9FFFF"/>
			<stop  offset="4.013550e-02" style="stop-color:#E6EBEB"/>
			<stop  offset="0.1072" style="stop-color:#CCD1D0"/>
			<stop  offset="0.1802" style="stop-color:#B7BCBA"/>
			<stop  offset="0.2613" style="stop-color:#A9ADAC"/>
			<stop  offset="0.3566" style="stop-color:#A1A5A3"/>
			<stop  offset="0.5014" style="stop-color:#9EA2A0"/>
			<stop  offset="0.5846" style="stop-color:#A1A5A3"/>
			<stop  offset="0.6501" style="stop-color:#ABAEAC"/>
			<stop  offset="0.7096" style="stop-color:#BCBEBB"/>
			<stop  offset="0.7654" style="stop-color:#D3D3D0"/>
			<stop  offset="0.8183" style="stop-color:#F1EFEB"/>
			<stop  offset="0.8389" style="stop-color:#FFFCF8"/>
			<stop  offset="0.8874" style="stop-color:#EBEAE8"/>
			<stop  offset="0.9563" style="stop-color:#D4D6D7"/>
			<stop  offset="1" style="stop-color:#CCCED0"/>
		</linearGradient>
		<path style="fill:url(#SVGID_00000122699663994423762680000017322463253468892852_);" d="M1046.6,403.5
			c-6.7-30.5-21.7-55.9-43.3-73.4c-24-19.5-55.4-29.4-93.4-29.4c-10.1,0-20.8,0.7-31.8,2.2l-277.9-216L177,259.2l-13.7,96.2
			L29.3,377l104.5,147.1l6-0.9L121.7,658L34.9,796.7l107.2,104.8l117-76.4L474.5,993l424-171.2L921,660.6
			c43.5-21.8,80.3-60.8,104.1-110.3C1048.6,501.4,1056.4,448,1046.6,403.5z M911.3,653.4l-22.4,160.8L476.3,980.9L259.7,812.1
			l-116.2,75.8l-95-92.8L132,661.7l20.3-151.1l-13.5,1.9L47.9,384.8l124.9-20.1l13.9-98L598.5,99.1L875.1,314
			C1107.3,280.1,1070.7,579.4,911.3,653.4z"/>
		
			<linearGradient id="SVGID_00000045605097303130862720000000048993816572842653_" gradientUnits="userSpaceOnUse" x1="519.35" y1="955.1863" x2="519.35" y2="723.9072" gradientTransform="matrix(1 0 0 -1 0 1080)">
			<stop  offset="0" style="stop-color:#FBFBFB"/>
			<stop  offset="5.314213e-02" style="stop-color:#F0F0F0"/>
			<stop  offset="0.166" style="stop-color:#DFDFDF"/>
			<stop  offset="0.3053" style="stop-color:#D3D3D3"/>
			<stop  offset="0.4978" style="stop-color:#CCCCCC"/>
			<stop  offset="1" style="stop-color:#CACACA"/>
		</linearGradient>
		<path style="fill:url(#SVGID_00000045605097303130862720000000048993816572842653_);" d="M841.2,317.8l-35,4.9l-32.3,4.5
			l-186-145.4L252.4,317.7l-5,36.1c-5.1,0.2-15.1,1.6-24.9,3.1c-12.7,2-25,4.3-25,4.3L208,283l387.4-157.2L841.2,317.8z"/>
		<polygon class="st6" points="226.6,499.8 225.5,512.1 194.8,560.9 162.6,612.2 176.8,507 201.3,503.4 		"/>
		
			<linearGradient id="SVGID_00000060727996251976997440000014453299952694633110_" gradientUnits="userSpaceOnUse" x1="901.5078" y1="384.6429" x2="547.4547" y2="131.8714" gradientTransform="matrix(1 0 0 -1 0 1080)">
			<stop  offset="0" style="stop-color:#B1B1B1"/>
			<stop  offset="0.2075" style="stop-color:#CDCDCD"/>
			<stop  offset="0.3841" style="stop-color:#E8E8E8"/>
			<stop  offset="0.4354" style="stop-color:#E4E4E4"/>
			<stop  offset="0.781" style="stop-color:#CDCDCD"/>
			<stop  offset="1" style="stop-color:#C5C5C5"/>
		</linearGradient>
		<path style="fill:url(#SVGID_00000060727996251976997440000014453299952694633110_);" d="M886.5,658.9l-18.7,137.8L509.6,942.3
			l13.5-33.1l12.1-29.6l288.3-117.3l13.2-97c4.8,0.4,13.8-0.6,22.9-1.8C872.9,661.5,886.5,658.9,886.5,658.9z"/>
		
			<linearGradient id="SVGID_00000036968565691375860280000002646967952643315605_" gradientUnits="userSpaceOnUse" x1="303.5054" y1="299.1515" x2="474.6166" y2="150.8358" gradientTransform="matrix(1 0 0 -1 0 1080)">
			<stop  offset="0" style="stop-color:#999999"/>
			<stop  offset="0.4847" style="stop-color:#9B9B9B"/>
			<stop  offset="0.7523" style="stop-color:#A3A3A3"/>
			<stop  offset="0.9667" style="stop-color:#B1B1B1"/>
			<stop  offset="1" style="stop-color:#B4B4B4"/>
		</linearGradient>
		<polygon style="fill:url(#SVGID_00000036968565691375860280000002646967952643315605_);" points="480.8,954.7 279.9,798.5 
			302.6,783.6 322.7,770.5 436.6,858.1 458.1,905.1 		"/>
		
			<linearGradient id="SVGID_00000114754151044625562780000011645650399126029991_" gradientUnits="userSpaceOnUse" x1="514.35" y1="921.4258" x2="514.35" y2="719.6258" gradientTransform="matrix(1 0 0 -1 0 1080)">
			<stop  offset="0" style="stop-color:#D1D1D1"/>
			<stop  offset="0.3926" style="stop-color:#B4B4B4"/>
			<stop  offset="0.7522" style="stop-color:#A1A1A1"/>
			<stop  offset="1" style="stop-color:#9A9A9A"/>
		</linearGradient>
		<path style="fill:url(#SVGID_00000114754151044625562780000011645650399126029991_);" d="M806.2,322.7l-32.3,4.5l-186-145.4
			L252.4,317.7l-5,36.1c-5.1,0.2-15.1,1.6-24.9,3.1l7.1-55.3l360.3-146.5L806.2,322.7z"/>
		<polygon class="st10" points="226.6,499.8 225.5,512.1 194.8,560.9 201.3,503.4 		"/>
		<polygon class="st11" points="458.1,905.1 302.6,783.6 322.7,770.5 436.6,858.1 		"/>
		
			<linearGradient id="SVGID_00000164473514196324338290000007592321644091259554_" gradientUnits="userSpaceOnUse" x1="870.1974" y1="378.9418" x2="557.9846" y2="161.9507" gradientTransform="matrix(1 0 0 -1 0 1080)">
			<stop  offset="0" style="stop-color:#878787"/>
			<stop  offset="0.233" style="stop-color:#A3A3A3"/>
			<stop  offset="0.4098" style="stop-color:#BBBBBB"/>
			<stop  offset="0.5336" style="stop-color:#AFAFAF"/>
			<stop  offset="0.8191" style="stop-color:#989898"/>
			<stop  offset="1" style="stop-color:#909090"/>
		</linearGradient>
		<path style="fill:url(#SVGID_00000164473514196324338290000007592321644091259554_);" d="M859.5,663.4L843,779.1l-319.9,130
			l12.1-29.6l288.3-117.3l13.2-97C841.4,665.6,850.4,664.6,859.5,663.4z"/>
	</g>
</g>
<g>
	<defs>
		<path id="SVGID_00000027592822032842755300000017380232441302428347_" d="M881.7,636c-2.8,0.6-5.5,1-8.3,1.4l-214.5,29.7
			l49.2-104.6l33.2,40.9L909.2,577C909.3,577.1,913.3,618.5,881.7,636z"/>
	</defs>
	<clipPath id="SVGID_00000117666624495596451000000004862549258972662409_">
		<use xlink:href="#SVGID_00000027592822032842755300000017380232441302428347_"  style="overflow:visible;"/>
	</clipPath>
	<g style="opacity:0.13;clip-path:url(#SVGID_00000117666624495596451000000004862549258972662409_);">
		
			<image style="overflow:visible;" width="740" height="1312" xlink:href="43943CB8.jpg"  transform="matrix(1.4091 0 0 1.4091 8 -488.0368)">
		</image>
	</g>
</g>
<g>
	<defs>
		<polygon id="SVGID_00000157290294988935776970000000942167401528574886_" points="660.7,405.3 491.9,796.9 486.6,681.5 
			617.3,368.3 		"/>
	</defs>
	<clipPath id="SVGID_00000096743584026299643140000002380494583082822548_">
		<use xlink:href="#SVGID_00000157290294988935776970000000942167401528574886_"  style="overflow:visible;"/>
	</clipPath>
	<g style="opacity:0.13;clip-path:url(#SVGID_00000096743584026299643140000002380494583082822548_);">
		
			<image style="overflow:visible;" width="740" height="1312" xlink:href="43943CB9.jpg"  transform="matrix(1.4091 0 0 1.4091 8 -488.0368)">
		</image>
	</g>
</g>
<g>
	<defs>
		<polygon id="SVGID_00000157998498039312671190000013754034492135463867_" points="407.6,629.2 162.1,770.5 375.9,398.9 
			186.3,428.5 89.5,401.9 149.9,487.7 278.4,469.2 77.6,791.8 146.1,858.2 386.6,701.2 491.9,922.5 491.9,796.9 		"/>
	</defs>
	<clipPath id="SVGID_00000062885498376719569900000018319488542144405383_">
		<use xlink:href="#SVGID_00000157998498039312671190000013754034492135463867_"  style="overflow:visible;"/>
	</clipPath>
	<g style="opacity:0.13;clip-path:url(#SVGID_00000062885498376719569900000018319488542144405383_);">
		
			<image style="overflow:visible;" width="740" height="1312" xlink:href="43943CBF.jpg"  transform="matrix(1.4091 0 0 1.4091 8 -488.0368)">
		</image>
	</g>
</g>
<g>
	<defs>
		<path id="SVGID_00000005232496316388649800000000699325948564472981_" d="M909.3,577c-12-22.9-34.9-38.3-35-38.3l-166.1,23.9
			l33.2,40.9l-0.1,0l-33.2-40.9l166.1-23.9c27.1-16.4,40.3-54.8,45-106.8l-233.4,26.8l-25.1-53.3l243.3-29
			c12.2-1.5,24.7-0.9,36.6,2.2C1020.4,399.1,997,499.3,909.3,577z"/>
	</defs>
	<clipPath id="SVGID_00000149358097965866911170000007795450012364139395_">
		<use xlink:href="#SVGID_00000005232496316388649800000000699325948564472981_"  style="overflow:visible;"/>
	</clipPath>
	<g style="opacity:0.13;clip-path:url(#SVGID_00000149358097965866911170000007795450012364139395_);">
		
			<image style="overflow:visible;" width="740" height="1312" xlink:href="43943CBA.jpg"  transform="matrix(1.4091 0 0 1.4091 8 -488.0368)">
		</image>
	</g>
</g>
<g>
	<defs>
		<path id="SVGID_00000028292907449272753580000000659278249894715823_" d="M1046.6,403.5c-6.7-30.5-21.7-55.9-43.3-73.4
			c-24-19.5-55.4-29.4-93.4-29.4c-10.1,0-20.8,0.7-31.8,2.2l-277.9-216L177,259.2l-13.7,96.2L29.3,377l104.5,147.1l6-0.9L121.7,658
			L34.9,796.7l107.2,104.8l117-76.4L474.5,993l424-171.2L921,660.6c43.5-21.8,80.3-60.8,104.1-110.3
			C1048.6,501.4,1056.4,448,1046.6,403.5z M911.3,653.4l-22.4,160.8L476.3,980.9L259.7,812.1l-116.2,75.8l-95-92.8L132,661.7
			l20.3-151.1l-13.5,1.9L47.9,384.8l124.9-20.1l13.9-98L598.5,99.1L875.1,314C1107.3,280.1,1070.7,579.4,911.3,653.4z"/>
	</defs>
	<clipPath id="SVGID_00000075844000790073090430000009759960039435396007_">
		<use xlink:href="#SVGID_00000028292907449272753580000000659278249894715823_"  style="overflow:visible;"/>
	</clipPath>
	<g style="opacity:0.13;clip-path:url(#SVGID_00000075844000790073090430000009759960039435396007_);">
		
			<image style="overflow:visible;" width="740" height="1312" xlink:href="43943CBB.jpg"  transform="matrix(1.4091 0 0 1.4091 8 -488.0368)">
		</image>
	</g>
</g>
<g>
	<defs>
		<polygon id="SVGID_00000015320355486525007590000012074946564075490464_" points="176.8,507 162.6,612.2 194.8,560.9 225.5,512.1 
			226.6,499.8 201.3,503.4 		"/>
	</defs>
	<clipPath id="SVGID_00000105410077345751944510000018069594313478005393_">
		<use xlink:href="#SVGID_00000015320355486525007590000012074946564075490464_"  style="overflow:visible;"/>
	</clipPath>
	<g style="opacity:0.13;clip-path:url(#SVGID_00000105410077345751944510000018069594313478005393_);">
		
			<image style="overflow:visible;" width="740" height="1312" xlink:href="43943CB6.jpg"  transform="matrix(1.4091 0 0 1.4091 8 -488.0368)">
		</image>
	</g>
</g>
<g>
	<defs>
		<path id="SVGID_00000171702776317682172660000011193295554826011313_" d="M859.5,663.5l0-0.1c-9.1,1.2-18.1,2.2-22.8,1.8l-13.2,97
			L535.2,879.5l-12.1,29.6l0,0l0,0.1l-13.5,33.1l358.2-145.6l18.7-137.8c0,0-13.6,2.6-26.9,4.6C859.6,663.5,859.5,663.5,859.5,663.5
			z"/>
	</defs>
	<clipPath id="SVGID_00000093172062731585464500000016653151473822695867_">
		<use xlink:href="#SVGID_00000171702776317682172660000011193295554826011313_"  style="overflow:visible;"/>
	</clipPath>
	<g style="opacity:0.13;clip-path:url(#SVGID_00000093172062731585464500000016653151473822695867_);">
		
			<image style="overflow:visible;" width="740" height="1312" xlink:href="43943CB7.jpg"  transform="matrix(1.4091 0 0 1.4091 8 -488.0368)">
		</image>
	</g>
</g>
<g>
	<defs>
		<path id="SVGID_00000016797777293230046280000010506240854366166966_" d="M773.9,327.2l32.3-4.5l0,0h0l35-4.9l-245.8-192L208,283
			l-10.5,78.2c0,0,12.3-2.3,25-4.3c9.8-1.5,19.8-2.9,24.9-3.1l5-36.1l335.5-135.9L773.9,327.2z"/>
	</defs>
	<clipPath id="SVGID_00000043416939803778498500000001986965302031136147_">
		<use xlink:href="#SVGID_00000016797777293230046280000010506240854366166966_"  style="overflow:visible;"/>
	</clipPath>
	<g style="opacity:0.13;clip-path:url(#SVGID_00000043416939803778498500000001986965302031136147_);">
		
			<image style="overflow:visible;" width="740" height="1312" xlink:href="43943CC8.jpg"  transform="matrix(1.4091 0 0 1.4091 8 -488.0368)">
		</image>
	</g>
</g>
<g>
	<defs>
		<polygon id="SVGID_00000000932469048342278090000003344284139159414962_" points="436.6,858.1 322.7,770.5 302.6,783.6 
			279.9,798.5 480.8,954.7 458.1,905.1 		"/>
	</defs>
	<clipPath id="SVGID_00000181068381429176842620000002169667626904131489_">
		<use xlink:href="#SVGID_00000000932469048342278090000003344284139159414962_"  style="overflow:visible;"/>
	</clipPath>
	<g style="opacity:0.13;clip-path:url(#SVGID_00000181068381429176842620000002169667626904131489_);">
		
			<image style="overflow:visible;" width="740" height="1312" xlink:href="43943CCB.jpg"  transform="matrix(1.4091 0 0 1.4091 8 -488.0368)">
		</image>
	</g>
</g>
<image style="display:none;overflow:visible;opacity:0.13;" width="740" height="1312" xlink:href="C46CC6E7.jpg"  transform="matrix(1.4091 0 0 1.4091 8 -488.0368)">
</image>
<image style="display:none;overflow:visible;" width="3000" height="2000" xlink:href="C46CC6E5.jpg"  transform="matrix(0.34 0 0 0.34 13.1 293.5)">
</image>
</svg>
